# xmcd CD database file
#
# Track frame offsets:
#	150
#	24817
#	44477
#	75985
#	93290
#	111335
#	132080
#	147477
#	159942
#	173332
#	185250
#	199967
#	217850
#	230857
#	244297
#	264025
#	277252
#	292382
#	304582
#
# Disc length: 4213 seconds
#
# Revision: 0
# Processed by: cddbd v1.5.1PL0 Copyright (c) Steve Scherf et al.
# Submitted via: CDex 1.51
#
DISCID=0a107313
DTITLE=David Newman and Dizzy Gillespie - The Weapon - At Home and Abroad
DYEAR=1999
DGENRE=Jazz
TTITLE0=Missy
TTITLE1=Seems Like I Gotta do Wrong
TTITLE2=You Can't Always Get What You Want
TTITLE3=Yes We Can Can
TTITLE4=Happy Times
TTITLE5=Drown in My Own Tears
TTITLE6=Freedom for the Stallion
TTITLE7=Love is Here to Stay
TTITLE8=Ain''t Misbehavin'
TTITLE9=Cognac Blues
TTITLE10=Blue and Sentimental
TTITLE11=Blues Chante
TTITLE12=When it's Sleepy Time down South
TTITLE13=Just Blues
TTITLE14=Lullaby in Rhythm
TTITLE15=Groovin' the Nursery Rhymes
TTITLE16=Mrs. Diz
TTITLE17=Cocktails for Two
TTITLE18=This is Happiness
EXTD=YEAR: 1999
EXTT0=
EXTT1=
EXTT2=
EXTT3=
EXTT4=
EXTT5=
EXTT6=
EXTT7=
EXTT8=
EXTT9=
EXTT10=
EXTT11=
EXTT12=
EXTT13=
EXTT14=
EXTT15=
EXTT16=
EXTT17=
EXTT18=
PLAYORDER=
